{
	"asset":{
		"generator":"Khronos glTF Blender I/O v3.6.27",
		"version":"2.0"
	},
	"extensionsUsed":[
		"KHR_materials_specular",
		"KHR_materials_ior"
	],
	"scene":0,
	"scenes":[
		{
			"name":"Scene",
			"nodes":[
				0,
				1,
				2
			]
		}
	],
	"nodes":[
		{
			"mesh":0,
			"name":"uploads_files_5014693_Mouse_Quad",
			"rotation":[
				0,
				0.7820782661437988,
				0,
				0.6231802105903625
			],
			"scale":[
				11.147115707397461,
				11.147115707397461,
				11.147115707397461
			]
		},
		{
			"mesh":1,
			"name":"eyes",
			"rotation":[
				-0.04150696098804474,
				-0.11810676753520966,
				0.16198132932186127,
				0.9788207411766052
			],
			"scale":[
				0.334128201007843,
				0.36771199107170105,
				0.3293721675872803
			],
			"translation":[
				3.7145986557006836,
				0.9031128287315369,
				0.027950400486588478
			]
		},
		{
			"name":"Sheltie dog pet",
			"scale":[
				0.08082056045532227,
				0.08082056045532227,
				0.08082056045532227
			]
		}
	],
	"materials":[
		{
			"doubleSided":true,
			"extensions":{
				"KHR_materials_specular":{
					"specularColorFactor":[
						0.3437364899279511,
						0.3437364899279511,
						0.3437364899279511
					]
				},
				"KHR_materials_ior":{
					"ior":1.4500000476837158
				}
			},
			"name":"Material.001",
			"pbrMetallicRoughness":{
				"baseColorFactor":[
					0.03189603611826897,
					0.0284260381013155,
					0.029556844383478165,
					1
				],
				"metallicFactor":0,
				"roughnessFactor":0.27748745679855347
			}
		},
		{
			"doubleSided":true,
			"extensions":{
				"KHR_materials_specular":{
					"specularColorFactor":[
						0.495829341227263,
						0.495829341227263,
						0.495829341227263
					]
				},
				"KHR_materials_ior":{
					"ior":1.4500000476837158
				}
			},
			"name":"Material.002",
			"pbrMetallicRoughness":{
				"baseColorFactor":[
					0,
					0,
					0,
					1
				],
				"metallicFactor":0,
				"roughnessFactor":0.15909090638160706
			}
		}
	],
	"meshes":[
		{
			"name":"uploads_files_5014693_Mouse_Quad",
			"primitives":[
				{
					"attributes":{
						"POSITION":0,
						"NORMAL":1
					},
					"indices":2
				}
			]
		},
		{
			"name":"Sphere.001",
			"primitives":[
				{
					"attributes":{
						"POSITION":3,
						"NORMAL":4,
						"TEXCOORD_0":5
					},
					"indices":6,
					"material":0
				},
				{
					"attributes":{
						"POSITION":7,
						"NORMAL":8,
						"TEXCOORD_0":9
					},
					"indices":10,
					"material":1
				}
			]
		}
	],
	"accessors":[
		{
			"bufferView":0,
			"componentType":5126,
			"count":55697,
			"max":[
				0.016170701012015343,
				0.02967863157391548,
				0.03188849985599518
			],
			"min":[
				-0.016049016267061234,
				-6.181908247526735e-05,
				-0.07236272096633911
			],
			"type":"VEC3"
		},
		{
			"bufferView":1,
			"componentType":5126,
			"count":55697,
			"type":"VEC3"
		},
		{
			"bufferView":2,
			"componentType":5123,
			"count":56310,
			"type":"SCALAR"
		},
		{
			"bufferView":3,
			"componentType":5126,
			"count":76,
			"max":[
				0.013755185529589653,
				0.012125968001782894,
				0.013246885500848293
			],
			"min":[
				-0.01470041275024414,
				-0.014199785888195038,
				-0.01470000296831131
			],
			"type":"VEC3"
		},
		{
			"bufferView":4,
			"componentType":5126,
			"count":76,
			"type":"VEC3"
		},
		{
			"bufferView":5,
			"componentType":5126,
			"count":76,
			"type":"VEC2"
		},
		{
			"bufferView":6,
			"componentType":5123,
			"count":264,
			"type":"SCALAR"
		},
		{
			"bufferView":7,
			"componentType":5126,
			"count":23,
			"max":[
				0.014699459075927734,
				0.004764275159686804,
				0.01377493143081665
			],
			"min":[
				-0.01470041275024414,
				-0.007848566398024559,
				-0.01470000296831131
			],
			"type":"VEC3"
		},
		{
			"bufferView":8,
			"componentType":5126,
			"count":23,
			"type":"VEC3"
		},
		{
			"bufferView":9,
			"componentType":5126,
			"count":23,
			"type":"VEC2"
		},
		{
			"bufferView":10,
			"componentType":5123,
			"count":72,
			"type":"SCALAR"
		}
	],
	"bufferViews":[
		{
			"buffer":0,
			"byteLength":668364,
			"byteOffset":0,
			"target":34962
		},
		{
			"buffer":0,
			"byteLength":668364,
			"byteOffset":668364,
			"target":34962
		},
		{
			"buffer":0,
			"byteLength":112620,
			"byteOffset":1336728,
			"target":34963
		},
		{
			"buffer":0,
			"byteLength":912,
			"byteOffset":1449348,
			"target":34962
		},
		{
			"buffer":0,
			"byteLength":912,
			"byteOffset":1450260,
			"target":34962
		},
		{
			"buffer":0,
			"byteLength":608,
			"byteOffset":1451172,
			"target":34962
		},
		{
			"buffer":0,
			"byteLength":528,
			"byteOffset":1451780,
			"target":34963
		},
		{
			"buffer":0,
			"byteLength":276,
			"byteOffset":1452308,
			"target":34962
		},
		{
			"buffer":0,
			"byteLength":276,
			"byteOffset":1452584,
			"target":34962
		},
		{
			"buffer":0,
			"byteLength":184,
			"byteOffset":1452860,
			"target":34962
		},
		{
			"buffer":0,
			"byteLength":144,
			"byteOffset":1453044,
			"target":34963
		}
	],
	"buffers":[
		{
			"byteLength":1453188,
			"uri":"data:application/octet-stream;base64,"
		}
	]
}
