{
	"asset":{
		"generator":"Khronos glTF Blender I/O v3.6.27",
		"version":"2.0"
	},
	"extensionsUsed":[
		"KHR_materials_specular",
		"KHR_materials_ior"
	],
	"scene":0,
	"scenes":[
		{
			"name":"Scene",
			"nodes":[
				0,
				1,
				2
			]
		}
	],
	"nodes":[
		{
			"mesh":0,
			"name":"uploads_files_3331128_Coxie1102_Killer_Whale",
			"rotation":[
				0,
				0.7345113754272461,
				0,
				0.6785964369773865
			],
			"scale":[
				0.018750609830021858,
				0.018750609830021858,
				0.018750609830021858
			],
			"translation":[
				0,
				0.3779708445072174,
				0
			]
		},
		{
			"mesh":1,
			"name":"eyes",
			"rotation":[
				-0.04150696098804474,
				-0.11810676753520966,
				0.16198132932186127,
				0.9788207411766052
			],
			"scale":[
				0.334128201007843,
				0.36771199107170105,
				0.3293721675872803
			],
			"translation":[
				3.7145986557006836,
				0.9031128287315369,
				0.027950400486588478
			]
		},
		{
			"name":"Sheltie dog pet",
			"scale":[
				0.08082056045532227,
				0.08082056045532227,
				0.08082056045532227
			]
		}
	],
	"materials":[
		{
			"doubleSided":true,
			"extensions":{
				"KHR_materials_specular":{
					"specularColorFactor":[
						0.3437364899279511,
						0.3437364899279511,
						0.3437364899279511
					]
				},
				"KHR_materials_ior":{
					"ior":1.4500000476837158
				}
			},
			"name":"Material.001",
			"pbrMetallicRoughness":{
				"baseColorFactor":[
					0.03189603611826897,
					0.0284260381013155,
					0.029556844383478165,
					1
				],
				"metallicFactor":0,
				"roughnessFactor":0.27748745679855347
			}
		},
		{
			"doubleSided":true,
			"extensions":{
				"KHR_materials_specular":{
					"specularColorFactor":[
						0.495829341227263,
						0.495829341227263,
						0.495829341227263
					]
				},
				"KHR_materials_ior":{
					"ior":1.4500000476837158
				}
			},
			"name":"Material.002",
			"pbrMetallicRoughness":{
				"baseColorFactor":[
					0,
					0,
					0,
					1
				],
				"metallicFactor":0,
				"roughnessFactor":0.15909090638160706
			}
		}
	],
	"meshes":[
		{
			"name":"uploads_files_3331128_Coxie1102_Killer_Whale",
			"primitives":[
				{
					"attributes":{
						"POSITION":0,
						"NORMAL":1
					},
					"indices":2
				}
			]
		},
		{
			"name":"Sphere.001",
			"primitives":[
				{
					"attributes":{
						"POSITION":3,
						"NORMAL":4,
						"TEXCOORD_0":5
					},
					"indices":6,
					"material":0
				},
				{
					"attributes":{
						"POSITION":7,
						"NORMAL":8,
						"TEXCOORD_0":9
					},
					"indices":10,
					"material":1
				}
			]
		}
	],
	"accessors":[
		{
			"bufferView":0,
			"componentType":5126,
			"count":73099,
			"max":[
				13.105278968811035,
				17.901975631713867,
				28.0450496673584
			],
			"min":[
				-13.105278968811035,
				-9.07645034790039,
				-35.40259552001953
			],
			"type":"VEC3"
		},
		{
			"bufferView":1,
			"componentType":5126,
			"count":73099,
			"type":"VEC3"
		},
		{
			"bufferView":2,
			"componentType":5125,
			"count":73908,
			"type":"SCALAR"
		},
		{
			"bufferView":3,
			"componentType":5126,
			"count":76,
			"max":[
				0.013755185529589653,
				0.012125968001782894,
				0.013246885500848293
			],
			"min":[
				-0.01470041275024414,
				-0.014199785888195038,
				-0.01470000296831131
			],
			"type":"VEC3"
		},
		{
			"bufferView":4,
			"componentType":5126,
			"count":76,
			"type":"VEC3"
		},
		{
			"bufferView":5,
			"componentType":5126,
			"count":76,
			"type":"VEC2"
		},
		{
			"bufferView":6,
			"componentType":5123,
			"count":264,
			"type":"SCALAR"
		},
		{
			"bufferView":7,
			"componentType":5126,
			"count":23,
			"max":[
				0.014699459075927734,
				0.004764275159686804,
				0.01377493143081665
			],
			"min":[
				-0.01470041275024414,
				-0.007848566398024559,
				-0.01470000296831131
			],
			"type":"VEC3"
		},
		{
			"bufferView":8,
			"componentType":5126,
			"count":23,
			"type":"VEC3"
		},
		{
			"bufferView":9,
			"componentType":5126,
			"count":23,
			"type":"VEC2"
		},
		{
			"bufferView":10,
			"componentType":5123,
			"count":72,
			"type":"SCALAR"
		}
	],
	"bufferViews":[
		{
			"buffer":0,
			"byteLength":877188,
			"byteOffset":0,
			"target":34962
		},
		{
			"buffer":0,
			"byteLength":877188,
			"byteOffset":877188,
			"target":34962
		},
		{
			"buffer":0,
			"byteLength":295632,
			"byteOffset":1754376,
			"target":34963
		},
		{
			"buffer":0,
			"byteLength":912,
			"byteOffset":2050008,
			"target":34962
		},
		{
			"buffer":0,
			"byteLength":912,
			"byteOffset":2050920,
			"target":34962
		},
		{
			"buffer":0,
			"byteLength":608,
			"byteOffset":2051832,
			"target":34962
		},
		{
			"buffer":0,
			"byteLength":528,
			"byteOffset":2052440,
			"target":34963
		},
		{
			"buffer":0,
			"byteLength":276,
			"byteOffset":2052968,
			"target":34962
		},
		{
			"buffer":0,
			"byteLength":276,
			"byteOffset":2053244,
			"target":34962
		},
		{
			"buffer":0,
			"byteLength":184,
			"byteOffset":2053520,
			"target":34962
		},
		{
			"buffer":0,
			"byteLength":144,
			"byteOffset":2053704,
			"target":34963
		}
	],
	"buffers":[
		{
			"byteLength":2053848,
			"uri":"data:application/octet-stream;base64,"
		}
	]
}
